<svg width="80" height="80" viewBox="0 0 80 80" fill="none" xmlns="http://www.w3.org/2000/svg">
<rect width="80" height="80" rx="15" fill="#F8B427"/>
<path d="M12.7441 53.4688V54.8457H8.90625V62H7.1543V53.4688H12.7441ZM8.30273 56.5801H10.2949C10.9668 56.5801 11.5449 56.6914 12.0293 56.9141C12.5137 57.1367 12.8867 57.4492 13.1484 57.8516C13.4102 58.2539 13.541 58.7227 13.541 59.2578C13.541 59.6641 13.4668 60.0352 13.3184 60.3711C13.1699 60.7031 12.9531 60.9922 12.668 61.2383C12.3867 61.4805 12.0469 61.668 11.6484 61.8008C11.25 61.9336 10.7988 62 10.2949 62H7.1543V53.4688H8.91797V60.6289H10.2949C10.6309 60.6289 10.9082 60.5664 11.127 60.4414C11.3457 60.3164 11.5098 60.1504 11.6191 59.9434C11.7324 59.7324 11.7891 59.5 11.7891 59.2461C11.7891 59.0039 11.7324 58.7852 11.6191 58.5898C11.5098 58.3906 11.3457 58.2344 11.127 58.1211C10.9082 58.0078 10.6309 57.9512 10.2949 57.9512H8.30273V56.5801ZM16.4648 61.2852L18.1465 55.6602H19.957L17.4082 62.9551C17.3535 63.1152 17.2793 63.2871 17.1855 63.4707C17.0957 63.6543 16.9727 63.8281 16.8164 63.9922C16.6641 64.1602 16.4707 64.2969 16.2363 64.4023C16.0059 64.5078 15.7227 64.5605 15.3867 64.5605C15.2266 64.5605 15.0957 64.5508 14.9941 64.5312C14.8926 64.5117 14.7715 64.4844 14.6309 64.4492V63.2129C14.6738 63.2129 14.7188 63.2129 14.7656 63.2129C14.8125 63.2168 14.8574 63.2188 14.9004 63.2188C15.123 63.2188 15.3047 63.1934 15.4453 63.1426C15.5859 63.0918 15.6992 63.0137 15.7852 62.9082C15.8711 62.8066 15.9395 62.6738 15.9902 62.5098L16.4648 61.2852ZM15.7617 55.6602L17.1387 60.2539L17.3789 62.041L16.2305 62.1641L13.9512 55.6602H15.7617ZM21.4453 55.6602H23.1328L23.0801 57.7812C23.0645 58.4609 22.9863 59.0449 22.8457 59.5332C22.7051 60.0215 22.5176 60.4316 22.2832 60.7637C22.0488 61.0957 21.7812 61.3613 21.4805 61.5605C21.1836 61.7559 20.8711 61.9023 20.543 62H20.2266L20.209 60.6992L20.3848 60.6816C20.584 60.4746 20.748 60.2734 20.877 60.0781C21.0059 59.8789 21.1055 59.6699 21.1758 59.4512C21.2461 59.2324 21.2969 58.9883 21.3281 58.7188C21.3633 58.4492 21.3848 58.1367 21.3926 57.7812L21.4453 55.6602ZM21.9023 55.6602H26.1035V62H24.4219V57.0137H21.9023V55.6602ZM19.8398 60.6816H27.0117V63.9043H25.3242V62H21.5684V63.9043H19.8398V60.6816ZM29.4844 59.6445L31.6113 55.6602H33.2988V62H31.6113V58.0098L29.4844 62H27.7969V55.6602H29.4844V59.6445ZM38.8652 55.6602V56.9844H35.748V55.6602H38.8652ZM40.1016 55.6602V62H38.4141V55.6602H40.1016ZM35.3262 55.6602H36.9844L36.8145 58.8594C36.791 59.3164 36.7422 59.7188 36.668 60.0664C36.5938 60.4141 36.4941 60.7109 36.3691 60.957C36.248 61.2031 36.1016 61.4043 35.9297 61.5605C35.7617 61.7129 35.5645 61.8242 35.3379 61.8945C35.1152 61.9648 34.8691 62 34.5996 62H34.084L34.0664 60.6699L34.2832 60.6465C34.4082 60.6348 34.5176 60.5996 34.6113 60.541C34.709 60.4785 34.791 60.3906 34.8574 60.2773C34.9277 60.1602 34.9863 60.0137 35.0332 59.8379C35.0801 59.6582 35.1172 59.4473 35.1445 59.2051C35.1758 58.9629 35.1973 58.6836 35.209 58.3672L35.3262 55.6602ZM42.5742 57.541H44.4141C44.9922 57.541 45.4844 57.6367 45.8906 57.8281C46.3008 58.0156 46.6133 58.2773 46.8281 58.6133C47.0469 58.9492 47.1562 59.3379 47.1562 59.7793C47.1562 60.0996 47.0938 60.3965 46.9688 60.6699C46.8477 60.9395 46.6699 61.1738 46.4355 61.373C46.2012 61.5723 45.9141 61.7266 45.5742 61.8359C45.2344 61.9453 44.8477 62 44.4141 62H41.5195V55.6602H43.2129V60.6875H44.4141C44.668 60.6875 44.8711 60.6465 45.0234 60.5645C45.1797 60.4785 45.293 60.3672 45.3633 60.2305C45.4375 60.0938 45.4746 59.9453 45.4746 59.7852C45.4746 59.6172 45.4375 59.4648 45.3633 59.3281C45.293 59.1875 45.1797 59.0742 45.0234 58.9883C44.8711 58.9023 44.668 58.8594 44.4141 58.8594H42.5742V57.541ZM52.4531 58.2207V59.5332H49.2305V58.2207H52.4531ZM49.793 55.6602V62H48.1055V55.6602H49.793ZM53.5957 55.6602V62H51.9023V55.6602H53.5957ZM56.5898 59.6445L58.7168 55.6602H60.4043V62H58.7168V58.0098L56.5898 62H54.9023V55.6602H56.5898V59.6445ZM63.5039 55.6602V62H61.8164V55.6602H63.5039ZM67.623 55.6602L64.8926 59.627H63.2051L63 58.0684H64.1191L65.4844 55.6602H67.623ZM65.5605 62L64.002 59.3223L65.4727 58.5078L67.8223 62H65.5605ZM70.1367 59.6445L72.2637 55.6602H73.9512V62H72.2637V58.0098L70.1367 62H68.4492V55.6602H70.1367V59.6445Z" fill="white"/>
<g clip-path="url(#clip0_153_35)">
<path d="M49.018 24.1203L49.3372 23.7642L48.0906 22.6993L47.784 23.0412C46.9082 22.3705 45.9479 21.8179 44.9153 21.3915C43.3569 20.7481 41.7022 20.4219 39.9972 20.4219C38.2922 20.4219 36.6375 20.7481 35.0791 21.3915C34.0266 21.8261 33.0493 22.3919 32.16 23.0802L31.7438 22.674L30.5725 23.8174L30.9302 24.1666C29.8338 25.2688 28.9684 26.5419 28.3567 27.9537C27.6976 29.475 27.3634 31.0902 27.3634 32.7545V32.7627C27.3646 34.5212 27.7375 36.2201 28.4716 37.812C29.1014 39.1775 29.967 40.4021 31.0483 41.4595L30.2697 42.7511C29.3998 44.1942 29.5713 45.9089 30.6605 46.6547C30.9905 46.8806 31.3836 47 31.7972 47C32.7544 47 33.7249 46.3766 34.3298 45.3732L35.0852 44.12C36.6377 44.7619 38.2866 45.0869 39.9972 45.0869C41.725 45.0869 43.4321 44.7409 45.005 44.0787L45.7594 45.3301C46.3642 46.3334 47.3346 46.9568 48.2919 46.9569C48.2919 46.9569 48.292 46.9569 48.2921 46.9569C48.7056 46.9569 49.0986 46.8375 49.4289 46.6114C50.5178 45.8657 50.6894 44.1511 49.8195 42.708L49.0215 41.3843C49.0471 41.3588 49.073 41.3335 49.0984 41.3077C51.3743 39.0008 52.6288 35.9661 52.6309 32.7618V32.7545C52.6309 31.0902 52.2967 29.475 51.6376 27.9537C51.0173 26.5221 50.1362 25.2331 49.018 24.1203ZM47.2687 39.5879C46.6007 40.2652 45.8396 40.8448 45.0062 41.3106C43.7282 42.0255 42.2972 42.4563 40.8254 42.5743V40.3899H39.1689V42.5751C37.9011 42.4759 36.6829 42.148 35.5372 41.5961C34.681 41.1838 33.8888 40.6544 33.1821 40.0224C31.3051 38.3446 30.1492 36.0279 29.9385 33.5704H32.1827V31.9534H29.9367C30.3336 27.1603 34.2598 23.3254 39.1689 22.9344V25.1338H40.8254V22.9344C45.7345 23.3254 49.6607 27.1603 50.0577 31.9534H47.8116V33.5704H50.0567C49.8672 35.8282 48.8941 37.9404 47.2687 39.5879Z" fill="white"/>
<path d="M40.5718 31.227C40.3925 31.1626 40.199 31.1273 39.997 31.1273C39.8313 31.1273 39.6712 31.1514 39.52 31.1956L35.8686 27.3493L34.6859 28.4191L38.3905 32.3213C38.3514 32.4594 38.33 32.6045 38.33 32.7546C38.33 33.6518 39.0779 34.3818 39.997 34.3818C40.9162 34.3818 41.664 33.6518 41.664 32.7546C41.664 32.5234 41.614 32.3034 41.5246 32.1041L46.2558 26.1081L45.2234 25.3319L40.5718 31.227ZM39.997 33.4331C39.6137 33.4331 39.3019 33.1287 39.3019 32.7546C39.3019 32.3804 39.6138 32.076 39.997 32.076C40.3804 32.076 40.6922 32.3804 40.6922 32.7546C40.6922 33.1287 40.3804 33.4331 39.997 33.4331Z" fill="white"/>
<path d="M35.067 18.2922C33.4949 16.5437 30.4584 16.5909 28.0196 18.3048L27.2288 17.4254L26.0817 18.4082L26.8724 19.2877C24.8152 21.4259 24.3735 24.3589 25.9457 26.1073C26.115 26.2955 26.3015 26.4626 26.5021 26.6094L35.5049 18.8958C35.3818 18.6826 35.2363 18.4804 35.067 18.2922Z" fill="white"/>
<path d="M53.1303 19.2957L53.9216 18.4167L52.7751 17.4332L51.9838 18.3121C49.5461 16.5967 46.5096 16.5477 44.9363 18.2952C44.7669 18.4833 44.6213 18.6854 44.498 18.8986L53.4959 26.6176C53.6967 26.471 53.8833 26.304 54.0527 26.1158C55.6259 24.3683 55.1861 21.4352 53.1303 19.2957Z" fill="white"/>
</g>
<defs>
<clipPath id="clip0_153_35">
<rect width="30" height="30" fill="white" transform="translate(25 17)"/>
</clipPath>
</defs>
</svg>
