<svg width="80" height="80" viewBox="0 0 80 80" fill="none" xmlns="http://www.w3.org/2000/svg">
<rect width="80" height="80" rx="15" fill="#F8B427"/>
<g clip-path="url(#clip0_386_3)">
<path d="M35.4347 14.9078C38.5331 22.5765 34.8148 31.3362 27.146 34.4346C19.4773 37.533 10.7176 33.8147 7.61918 26.146C4.52079 18.4772 8.23908 9.71748 15.9078 6.6191C23.5766 3.52071 32.3363 7.23897 35.4347 14.9078ZM9.09425 25.55C11.864 32.4054 19.6947 35.7293 26.5501 32.9595C33.4055 30.1898 36.7294 22.3591 33.9596 15.5037C31.1899 8.6483 23.3592 5.32438 16.5038 8.09415C9.6484 10.8639 6.32448 18.6946 9.09425 25.55Z" fill="white"/>
<path d="M14.2223 29.2361C16.1251 29.8193 18.2211 29.7521 19.9351 28.7042C21.7116 27.6181 27.9235 21.2461 29.0646 19.5546C30.1882 17.8892 30.1715 15.7422 29.5841 13.8406C29.2159 12.6485 28.1589 11.6674 27.4214 11.1013C26.9961 10.7748 26.3955 10.8101 26.007 11.1796C25.2099 11.9378 23.8856 13.251 23.2463 14.1875C22.2967 15.5787 23.9076 16.7475 23.9076 16.7475C23.9076 16.7475 25.1485 17.66 25.1328 18.3354C25.1101 19.3117 23.7307 21.0201 22.6136 22.2472C21.3889 23.367 19.6835 24.7502 18.7073 24.775C18.0319 24.7922 17.1167 23.5533 17.1167 23.5533C17.1167 23.5533 15.9443 21.945 14.5553 22.8976C13.6201 23.539 12.3099 24.8661 11.5534 25.6649C11.1848 26.0542 11.1508 26.6548 11.4782 27.0794C12.046 27.8157 13.0293 28.8705 14.2223 29.2361Z" fill="white"/>
</g>
<g clip-path="url(#clip1_386_3)">
<path d="M30.5332 29.3023V60.2182C30.5332 62.5083 32.2081 64.4121 34.4142 64.8004V67.4637C34.4142 67.7599 34.6574 68 34.9573 68H39.3021C39.602 68 39.8452 67.7599 39.8452 67.4637V64.8728H57.1854V67.4637C57.1854 67.7599 57.4286 68 57.7285 68H62.0733C62.3733 68 62.6164 67.7599 62.6164 67.4637V64.8004C64.8225 64.4121 66.4975 62.5083 66.4975 60.2182V29.3023C66.499 22.213 30.5348 22.2522 30.5332 29.3023ZM37.1151 27.7407H59.9155C60.4331 27.7407 60.8526 28.1549 60.8526 28.666V30.9141C60.8526 31.4251 60.4331 31.8394 59.9155 31.8394H37.1151C36.5976 31.8394 36.1781 31.4251 36.1781 30.9141V28.666C36.1781 28.1549 36.5976 27.7407 37.1151 27.7407ZM32.7609 58.5002C32.7609 57.6116 33.4904 56.8913 34.3902 56.8913C35.29 56.8913 36.0195 57.6116 36.0195 58.5002C36.0195 59.3887 35.29 60.109 34.3902 60.109C33.4904 60.109 32.7609 59.3887 32.7609 58.5002ZM38.8125 60.7985C37.9127 60.7985 37.1832 60.0782 37.1832 59.1897C37.1832 58.3011 37.9127 57.5808 38.8125 57.5808C39.7124 57.5808 40.4418 58.3011 40.4418 59.1897C40.4418 60.0782 39.7124 60.7985 38.8125 60.7985ZM53.2575 63.6454H43.7732V61.7494H53.2575V63.6454ZM56.6571 59.1897C56.6571 58.3011 57.3865 57.5808 58.2864 57.5808C59.1862 57.5808 59.9156 58.3011 59.9156 59.1897C59.9156 60.0782 59.1862 60.7985 58.2864 60.7985C57.3865 60.7985 56.6571 60.0782 56.6571 59.1897ZM62.6405 60.109C61.7406 60.109 61.0112 59.3887 61.0112 58.5002C61.0112 57.6116 61.7406 56.8913 62.6405 56.8913C63.5403 56.8913 64.2698 57.6116 64.2698 58.5002C64.2698 59.3887 63.5403 60.109 62.6405 60.109ZM64.2698 50.9194C64.2698 51.5987 63.7403 52.1871 62.9992 52.3263C53.3433 54.1395 43.6873 54.1395 34.0314 52.3263C33.2903 52.1871 32.7609 51.5987 32.7609 50.9194V34.4372C32.7609 33.6429 33.4784 32.9991 34.3636 32.9991C39.5264 35.3042 44.0098 33.1802 48.5153 33.4429C53.0782 33.709 57.8552 35.5017 62.6671 32.9991C63.5522 32.9991 64.2698 33.6429 64.2698 34.4371V50.9194Z" fill="#DE9B11"/>
<path d="M68.8228 39.5005H66.1404V40.4198H68.8228V50.6724C68.8228 50.8067 68.7125 50.9156 68.5765 50.9156H66.1404V51.8349H69.3452C69.4664 51.8349 69.5647 51.7379 69.5647 51.6182V50.9156V40.4198V40.1674C69.5647 39.7991 69.2623 39.5005 68.8893 39.5005H68.8228Z" fill="#DE9B11"/>
<path d="M70.0035 49.709H67.8844C67.3341 49.709 66.8879 49.2685 66.8879 48.725V42.6105C66.8879 42.067 67.3341 41.6265 67.8844 41.6265H70.0035C70.5538 41.6265 71 42.067 71 42.6105V48.725C70.9999 49.2685 70.5538 49.709 70.0035 49.709Z" fill="#DE9B11"/>
<path d="M28.1772 39.5005H30.8596V40.4198H28.1772V50.6724C28.1772 50.8067 28.2875 50.9156 28.4235 50.9156H30.8596V51.8349H27.6548C27.5336 51.8349 27.4353 51.7379 27.4353 51.6182V50.9156V40.4198V40.1674C27.4353 39.7991 27.7377 39.5005 28.1107 39.5005H28.1772Z" fill="#DE9B11"/>
<path d="M26.9965 49.709H29.1155C29.6659 49.709 30.112 49.2685 30.112 48.725V42.6105C30.112 42.067 29.6659 41.6265 29.1155 41.6265H26.9965C26.4462 41.6265 26 42.067 26 42.6105V48.725C26 49.2685 26.4462 49.709 26.9965 49.709Z" fill="#DE9B11"/>
</g>
<defs>
<clipPath id="clip0_386_3">
<rect width="30" height="30" fill="white" transform="translate(13.2383 40.0537) rotate(-112)"/>
</clipPath>
<clipPath id="clip1_386_3">
<rect width="45" height="44" fill="white" transform="translate(26 24)"/>
</clipPath>
</defs>
</svg>
