<svg width="23" height="30" viewBox="0 0 23 30" fill="none" xmlns="http://www.w3.org/2000/svg">
<g clip-path="url(#clip0_14_2349)">
<path d="M21.1549 30H1.84513C0.826093 30 0 29.1823 0 28.1736V1.8264C0 0.817706 0.826093 0 1.84513 0H21.1549C22.1739 0 23 0.817706 23 1.8264V28.1736C23 29.1823 22.1739 30 21.1549 30Z" fill="#F8B427"/>
<path d="M19.4201 10.0985H3.57998C3.15179 10.0985 2.80469 9.75487 2.80469 9.33103V3.86081C2.80469 3.43697 3.1518 3.09338 3.57998 3.09338H19.4201C19.8483 3.09338 20.1954 3.43697 20.1954 3.86081V9.33103C20.1954 9.75487 19.8483 10.0985 19.4201 10.0985Z" fill="#F2F2F2"/>
<path d="M6.73192 13.7011H2.98793C2.88673 13.7011 2.80469 13.6199 2.80469 13.5197V12.2268C2.80469 12.1266 2.88673 12.0454 2.98793 12.0454H6.73192C6.83312 12.0454 6.91517 12.1266 6.91517 12.2268V13.5197C6.91517 13.6199 6.83312 13.7011 6.73192 13.7011Z" fill="black"/>
<path d="M13.372 13.7011H9.62807C9.52687 13.7011 9.44482 13.6199 9.44482 13.5197V12.2268C9.44482 12.1266 9.52687 12.0454 9.62807 12.0454H13.3721C13.4733 12.0454 13.5553 12.1266 13.5553 12.2268V13.5197C13.5553 13.6199 13.4733 13.7011 13.372 13.7011Z" fill="black"/>
<path d="M20.0122 13.7011H16.2682C16.167 13.7011 16.085 13.6199 16.085 13.5197V12.2268C16.085 12.1266 16.167 12.0454 16.2682 12.0454H20.0122C20.1134 12.0454 20.1954 12.1266 20.1954 12.2268V13.5197C20.1954 13.6199 20.1134 13.7011 20.0122 13.7011Z" fill="black"/>
<path d="M6.67087 19.0333H3.04898C2.91406 19.0333 2.80469 18.9251 2.80469 18.7915V16.3325C2.80469 16.1989 2.91407 16.0906 3.04898 16.0906H6.67087C6.8058 16.0906 6.91517 16.1989 6.91517 16.3325V18.7915C6.91517 18.9251 6.80579 19.0333 6.67087 19.0333Z" fill="black"/>
<path d="M13.311 19.0333H9.68912C9.5542 19.0333 9.44482 18.9251 9.44482 18.7915V16.3325C9.44482 16.1989 9.5542 16.0906 9.68912 16.0906H13.311C13.4459 16.0906 13.5553 16.1989 13.5553 16.3325V18.7915C13.5553 18.9251 13.4459 19.0333 13.311 19.0333Z" fill="black"/>
<path d="M19.9511 19.0333H16.3293C16.1943 19.0333 16.085 18.9251 16.085 18.7915V16.3325C16.085 16.1989 16.1943 16.0906 16.3293 16.0906H19.9511C20.0861 16.0906 20.1954 16.1989 20.1954 16.3325V18.7915C20.1954 18.9251 20.0861 19.0333 19.9511 19.0333Z" fill="black"/>
<path d="M6.67087 23.1822H3.04898C2.91406 23.1822 2.80469 23.074 2.80469 22.9404V20.4814C2.80469 20.3478 2.91407 20.2396 3.04898 20.2396H6.67087C6.8058 20.2396 6.91517 20.3478 6.91517 20.4814V22.9404C6.91517 23.074 6.80579 23.1822 6.67087 23.1822Z" fill="black"/>
<path d="M13.311 23.1822H9.68912C9.5542 23.1822 9.44482 23.074 9.44482 22.9404V20.4814C9.44482 20.3478 9.5542 20.2396 9.68912 20.2396H13.311C13.4459 20.2396 13.5553 20.3478 13.5553 20.4814V22.9404C13.5553 23.074 13.4459 23.1822 13.311 23.1822Z" fill="black"/>
<path d="M19.9511 23.1822H16.3293C16.1943 23.1822 16.085 23.074 16.085 22.9404V20.4814C16.085 20.3478 16.1943 20.2396 16.3293 20.2396H19.9511C20.0861 20.2396 20.1954 20.3478 20.1954 20.4814V22.9404C20.1954 23.074 20.0861 23.1822 19.9511 23.1822Z" fill="black"/>
<path d="M6.67087 27.3312H3.04898C2.91406 27.3312 2.80469 27.2229 2.80469 27.0894V24.6303C2.80469 24.4968 2.91407 24.3885 3.04898 24.3885H6.67087C6.8058 24.3885 6.91517 24.4968 6.91517 24.6303V27.0894C6.91517 27.2229 6.80579 27.3312 6.67087 27.3312Z" fill="black"/>
<path d="M13.311 27.3312H9.68912C9.5542 27.3312 9.44482 27.2229 9.44482 27.0894V24.6303C9.44482 24.4968 9.5542 24.3885 9.68912 24.3885H13.311C13.4459 24.3885 13.5553 24.4968 13.5553 24.6303V27.0894C13.5553 27.2229 13.4459 27.3312 13.311 27.3312Z" fill="black"/>
<path d="M19.9511 27.3312H16.3293C16.1943 27.3312 16.085 27.2229 16.085 27.0894V24.6303C16.085 24.4968 16.1943 24.3885 16.3293 24.3885H19.9511C20.0861 24.3885 20.1954 24.4968 20.1954 24.6303V27.0894C20.1954 27.2229 20.0861 27.3312 19.9511 27.3312Z" fill="black"/>
<path d="M19.5351 6.60047C19.5351 6.78618 19.532 6.92009 19.5259 7.00228C19.5043 7.36456 19.3836 7.66135 19.1638 7.89265C18.9439 8.12401 18.6156 8.23966 18.1789 8.23966C17.7422 8.23966 17.4139 8.12401 17.1941 7.89265C16.9742 7.66135 16.8535 7.36456 16.832 7.00228C16.8258 6.8379 16.8228 6.704 16.8228 6.60047C16.8228 6.49702 16.8258 6.36004 16.832 6.18953C16.8535 5.82732 16.9742 5.53054 17.1941 5.29916C17.4139 5.06787 17.7422 4.95215 18.1789 4.95215C18.6156 4.95215 18.9439 5.06787 19.1638 5.29916C19.3836 5.53053 19.5043 5.82732 19.5259 6.18953C19.532 6.27478 19.5351 6.41176 19.5351 6.60047ZM18.548 5.82197C18.4742 5.72916 18.3511 5.68271 18.1789 5.68271C18.0067 5.68271 17.8837 5.72915 17.8099 5.82197C17.7361 5.91487 17.6946 6.04499 17.6854 6.21236C17.6792 6.37674 17.6761 6.50309 17.6761 6.59134C17.6761 6.67353 17.6792 6.80295 17.6854 6.97945C17.6915 7.1469 17.7322 7.27703 17.8076 7.36984C17.8829 7.46274 18.0067 7.50911 18.1789 7.50911C18.3511 7.50911 18.4749 7.46274 18.5503 7.36984C18.6256 7.27703 18.6663 7.1469 18.6725 6.97945C18.6786 6.89121 18.6817 6.76186 18.6817 6.59134C18.6817 6.4209 18.6786 6.29455 18.6725 6.21236C18.6633 6.04499 18.6218 5.91486 18.548 5.82197Z" fill="black"/>
</g>
<defs>
<clipPath id="clip0_14_2349">
<rect width="23" height="30" fill="white"/>
</clipPath>
</defs>
</svg>
