<svg width="25" height="26" viewBox="0 0 25 26" fill="none" xmlns="http://www.w3.org/2000/svg">
<g clip-path="url(#clip0_20_1769)">
<path d="M16.7601 25.545H4.47033C2.00537 25.545 0 23.5395 0 21.0747V8.78483C0 6.31998 2.00537 4.3147 4.47033 4.3147H16.7601C19.2249 4.3147 21.2303 6.31997 21.2303 8.78483V21.0747C21.2303 23.5395 19.2249 25.545 16.7601 25.545ZM4.47033 6.47844C3.19849 6.47844 2.16375 7.51298 2.16375 8.78481V21.0746C2.16375 22.3465 3.19849 23.3812 4.47033 23.3812H16.7601C18.0319 23.3812 19.0666 22.3465 19.0666 21.0746V8.78483C19.0666 7.51299 18.0319 6.47846 16.7601 6.47846H4.47033V6.47844Z" fill="#0066FF"/>
<path d="M10.8328 18.0002L16 12.833L21.1672 18.0002L25 14.1672L19.833 9L25 3.83303L21.1672 0L16 5.16721L10.8328 0L7 3.83303L12.167 9L7 14.1672L10.8328 18.0002Z" fill="#CF131B"/>
</g>
<defs>
<clipPath id="clip0_20_1769">
<rect width="25" height="25.545" fill="white"/>
</clipPath>
</defs>
</svg>
