<svg width="22" height="22" viewBox="0 0 22 22" fill="none" xmlns="http://www.w3.org/2000/svg">
<g clip-path="url(#clip0_21_2013)">
<path d="M15.7888 21.3147H4.21127C1.88916 21.3147 0 19.4254 0 17.1034V5.52578C0 3.20378 1.88916 1.3147 4.21127 1.3147H15.7888C18.1108 1.3147 20 3.20376 20 5.52578V17.1034C20 19.4254 18.1108 21.3147 15.7888 21.3147ZM4.21127 3.35305C3.01314 3.35305 2.03836 4.32764 2.03836 5.52577V17.1034C2.03836 18.3015 3.01314 19.2763 4.21127 19.2763H15.7888C16.987 19.2763 17.9616 18.3015 17.9616 17.1034V5.52578C17.9616 4.32765 16.987 3.35307 15.7888 3.35307H4.21127V3.35305Z" fill="#0066FF"/>
<path d="M20.9745 1.6537L19.8352 0.513389C19.149 -0.170791 18.0309 -0.171807 17.3447 0.514405L9.1547 8.7044C8.81866 9.03942 8.55327 9.43096 8.36557 9.86892L6.53907 14.1355C6.43916 14.3686 6.49164 14.639 6.67127 14.8176C6.78933 14.9367 6.94777 14.9993 7.10922 14.9993C7.19197 14.9993 7.27472 14.9831 7.35342 14.9498L11.62 13.1233C12.0559 12.9366 12.4474 12.6712 12.7845 12.3342L20.9735 4.14417C21.6607 3.45799 21.6607 2.3399 20.9745 1.6537ZM11.1316 11.983L9.04269 12.8771L8.6118 12.4462L9.50588 10.3573C9.55029 10.2529 9.60981 10.1575 9.66734 10.0612L11.4272 11.8216C11.3314 11.8796 11.2355 11.9386 11.1316 11.983Z" fill="#CF131B"/>
</g>
<defs>
<clipPath id="clip0_21_2013">
<rect width="21.489" height="21.3147" fill="white"/>
</clipPath>
</defs>
</svg>
