<svg width="80" height="80" viewBox="0 0 80 80" fill="none" xmlns="http://www.w3.org/2000/svg">
<rect width="80" height="80" rx="15" fill="#F02323"/>
<g clip-path="url(#clip0_386_4)">
<path d="M36.4347 15.9078C39.5331 23.5765 35.8148 32.3362 28.146 35.4346C20.4773 38.533 11.7176 34.8147 8.61918 27.146C5.52079 19.4772 9.23908 10.7175 16.9078 7.6191C24.5766 4.52071 33.3363 8.23897 36.4347 15.9078ZM10.0942 26.55C12.864 33.4054 20.6947 36.7293 27.5501 33.9595C34.4055 31.1898 37.7294 23.3591 34.9596 16.5037C32.1899 9.6483 24.3592 6.32438 17.5038 9.09415C10.6484 11.8639 7.32448 19.6946 10.0942 26.55Z" fill="white"/>
<path d="M15.2223 30.2361C17.1251 30.8193 19.2211 30.7521 20.9351 29.7042C22.7116 28.6181 28.9235 22.2461 30.0646 20.5546C31.1882 18.8892 31.1715 16.7422 30.5841 14.8406C30.2159 13.6485 29.1589 12.6674 28.4214 12.1013C27.9961 11.7748 27.3955 11.8101 27.007 12.1796C26.2099 12.9378 24.8856 14.251 24.2463 15.1875C23.2967 16.5787 24.9076 17.7475 24.9076 17.7475C24.9076 17.7475 26.1485 18.66 26.1328 19.3354C26.1101 20.3117 24.7307 22.0201 23.6136 23.2472C22.3889 24.367 20.6835 25.7502 19.7073 25.775C19.0319 25.7922 18.1167 24.5533 18.1167 24.5533C18.1167 24.5533 16.9443 22.945 15.5553 23.8976C14.6201 24.539 13.3099 25.8661 12.5534 26.6649C12.1848 27.0542 12.1508 27.6548 12.4782 28.0794C13.046 28.8157 14.0293 29.8705 15.2223 30.2361Z" fill="white"/>
</g>
<g clip-path="url(#clip1_386_4)">
<path d="M71.0318 61.8651L43.8415 15.0807C43.0847 13.778 41.7636 13 40.3078 13C38.8524 13 37.5314 13.7778 36.7742 15.0806L9.58381 61.8651C8.82362 63.1731 8.80477 64.7101 9.53345 65.9764C10.2626 67.2435 11.6025 68 13.1176 68H67.4981C69.0132 68 70.3531 67.2435 71.0822 65.9764C71.8109 64.71 71.792 63.1731 71.0318 61.8651Z" fill="#CF131B"/>
<path d="M38.7968 52.4298H41.819C42.8883 43.715 44.2007 31.0951 44.2007 31.0951C44.5122 29.0799 43.0988 27.4313 41.0598 27.4313H39.5559C37.5169 27.4313 36.1036 29.08 36.4151 31.0951C36.4151 31.0951 37.7276 43.715 38.7968 52.4298Z" fill="#F02323"/>
<path d="M37.2703 57.8286C37.2703 59.5062 38.6303 60.866 40.3077 60.866C41.9851 60.866 43.3451 59.5061 43.3451 57.8286C43.3451 56.1512 41.9851 54.7912 40.3077 54.7912C38.6303 54.7912 37.2703 56.1512 37.2703 57.8286Z" fill="#F02323"/>
</g>
<defs>
<clipPath id="clip0_386_4">
<rect width="30" height="30" fill="white" transform="translate(14.2383 41.0537) rotate(-112)"/>
</clipPath>
<clipPath id="clip1_386_4">
<rect width="62.6157" height="55" fill="white" transform="translate(9 13)"/>
</clipPath>
</defs>
</svg>
