<svg width="34" height="34" viewBox="0 0 34 34" fill="none" xmlns="http://www.w3.org/2000/svg">
<g clip-path="url(#clip0_18_200)">
<path d="M27.8182 17.1104C27.8182 23.268 22.9747 28.2597 17 28.2597C11.0253 28.2597 6.18182 23.268 6.18182 17.1104C6.18182 10.9528 11.0253 5.96104 17 5.96104C22.9747 5.96104 27.8182 10.9528 27.8182 17.1104Z" fill="#F8B427"/>
<path d="M17 0C7.61114 0 0 7.61114 0 17C0 26.3889 7.61114 34 17 34C26.3889 34 34 26.3889 34 17C34.0002 7.61114 26.3889 0 17 0ZM29.2989 11.2613C29.5802 11.1434 29.9034 11.2759 30.0213 11.5576C30.3772 12.4085 30.6501 13.298 30.8318 14.2016C30.8919 14.5006 30.6985 14.7915 30.3995 14.8516C30.3627 14.8589 30.3262 14.8624 30.29 14.8624C30.0326 14.8624 29.8023 14.6814 29.7496 14.4193C29.5822 13.5868 29.331 12.7677 29.0029 11.9837C28.8852 11.7024 29.0177 11.379 29.2989 11.2613ZM26.1665 6.99561C26.3814 6.77947 26.7306 6.77836 26.947 6.9934C27.6007 7.64316 28.1935 8.36003 28.7084 9.1237C28.8786 9.37649 28.8119 9.71937 28.5591 9.89003C28.4644 9.95383 28.3573 9.9843 28.2509 9.9843C28.0736 9.9843 27.8994 9.89908 27.7928 9.74078C27.3181 9.03671 26.7717 8.37548 26.1685 7.77607C25.9524 7.56125 25.9515 7.21175 26.1665 6.99561ZM21.6437 4.24691C21.7596 3.96519 22.0819 3.83008 22.3643 3.94643C23.2158 4.29703 24.0373 4.73373 24.8057 5.24505C25.0593 5.41395 25.1284 5.75638 24.9593 6.01027C24.8531 6.17012 24.678 6.25644 24.4994 6.25644C24.3941 6.25644 24.2881 6.22642 24.1941 6.16393C23.4861 5.69279 22.729 5.29031 21.9444 4.96731C21.6624 4.8514 21.528 4.52884 21.6437 4.24691ZM16.9651 2.89088L16.9898 2.89066C16.9903 2.89066 16.9907 2.89066 16.9912 2.89066C17.914 2.89066 18.8267 2.97853 19.7151 3.15162C20.0141 3.21013 20.2095 3.49979 20.1514 3.79917C20.1002 4.06256 19.869 4.24536 19.6103 4.24536C19.5752 4.24536 19.5398 4.24205 19.5039 4.23521C18.6848 4.07536 17.8423 3.99456 17 3.99456L16.9651 3.99478C16.6602 3.99478 16.4132 3.74773 16.4132 3.44283C16.4132 3.13794 16.6602 2.89088 16.9651 2.89088ZM11.5688 3.97381C12.4193 3.61901 13.309 3.34701 14.2133 3.16575C14.5101 3.10592 14.8028 3.29933 14.8629 3.59848C14.9227 3.89742 14.7293 4.18818 14.4301 4.24801C13.5971 4.41514 12.7774 4.66573 11.9938 4.99248C11.9245 5.02162 11.8523 5.03531 11.7814 5.03531C11.5653 5.03531 11.3604 4.9077 11.2717 4.69575C11.1547 4.41448 11.2876 4.09148 11.5688 3.97381ZM7.00202 7.04462C7.65265 6.39112 8.37019 5.79899 9.1343 5.28501C9.38665 5.11501 9.73019 5.18147 9.90041 5.43492C10.0706 5.68794 10.0035 6.0308 9.75049 6.20103C9.04599 6.67504 8.38409 7.22081 7.78423 7.82353C7.67649 7.93194 7.53475 7.98603 7.39323 7.98603C7.25238 7.98603 7.11152 7.93238 7.00378 7.82508C6.78764 7.61004 6.78676 7.26054 7.00202 7.04462ZM3.95085 11.6247C4.3021 10.7727 4.73969 9.95162 5.25168 9.18419C5.42101 8.9303 5.76344 8.86186 6.01712 9.03119C6.2708 9.20053 6.33924 9.54296 6.17012 9.79664C5.69831 10.5038 5.29517 11.2606 4.97151 12.0455C4.88364 12.2585 4.67787 12.3873 4.46084 12.3873C4.39086 12.3873 4.31933 12.3736 4.25066 12.3455C3.96917 12.2292 3.83472 11.9064 3.95085 11.6247ZM2.89089 17.0232V17.0002C2.89089 16.0833 2.97942 15.1658 3.15427 14.2729C3.213 13.974 3.50266 13.7779 3.80204 13.8373C4.10098 13.8958 4.29614 14.1857 4.23764 14.4851C4.07647 15.3079 3.99478 16.1544 3.99478 17.0002V17.0232C3.99478 17.3281 3.74773 17.5751 3.44283 17.5751C3.13794 17.5751 2.89089 17.3281 2.89089 17.0232ZM4.69112 22.7173C4.62179 22.7462 4.54982 22.7599 4.47917 22.7599C4.26281 22.7599 4.0577 22.6321 3.96939 22.4199C3.61482 21.5686 3.3437 20.6784 3.16355 19.7745C3.10394 19.4756 3.298 19.1851 3.59716 19.1254C3.89565 19.0667 4.18664 19.2599 4.24625 19.5591C4.41205 20.3916 4.66198 21.2114 4.98829 21.9958C5.10574 22.2771 4.97239 22.6001 4.69112 22.7173ZM7.81647 26.9887C7.70873 27.0967 7.56721 27.1508 7.42569 27.1508C7.28461 27.1508 7.14376 27.0971 7.03579 26.9896C6.38251 26.3381 5.79104 25.6201 5.27817 24.856C5.10817 24.603 5.17551 24.2601 5.42874 24.0901C5.68175 23.9203 6.02463 23.9874 6.19463 24.2407C6.66798 24.9452 7.21308 25.6071 7.81558 26.2083C8.03151 26.4233 8.03195 26.7728 7.81647 26.9887ZM12.3343 29.7451C12.2464 29.958 12.0406 30.0865 11.8241 30.0865C11.7538 30.0865 11.6823 30.073 11.6134 30.0445C10.7632 29.693 9.9428 29.255 9.17426 28.7421C8.92081 28.5728 8.85237 28.2304 9.0217 27.9767C9.19104 27.7232 9.53369 27.6548 9.78715 27.8241C10.4954 28.2968 11.2518 28.7006 12.0353 29.0245C12.3166 29.1407 12.4508 29.4634 12.3343 29.7451ZM17.0117 31.1093H17C16.0787 31.1093 15.1572 31.0199 14.2612 30.8437C13.9623 30.7848 13.7673 30.4947 13.8261 30.1955C13.885 29.8966 14.1749 29.7016 14.4743 29.7604C15.3004 29.9229 16.1502 30.0052 17 30.0052C17.3049 30.0052 17.5577 30.2523 17.5577 30.5572C17.5577 30.8621 17.3166 31.1093 17.0117 31.1093ZM22.4089 30.0348C21.558 30.3885 20.6676 30.6587 19.7628 30.8384C19.7266 30.8455 19.6904 30.849 19.6549 30.849C19.3968 30.849 19.1663 30.6673 19.1142 30.4044C19.0548 30.1055 19.2491 29.8149 19.5482 29.7555C20.3817 29.5902 21.2017 29.3411 21.9856 29.0155C22.2671 28.8987 22.5901 29.0318 22.7071 29.3135C22.8239 29.5948 22.6904 29.918 22.4089 30.0348ZM23.3448 16.8474C22.2905 17.6977 20.8588 18.1286 19.0895 18.1286H15.022V19.4427H16.4046C16.6346 19.4427 16.8209 19.629 16.8209 19.8591V21.7854C16.8209 22.0154 16.6346 22.2018 16.4046 22.2018H15.022V24.8876C15.022 25.175 14.7889 25.4082 14.5014 25.4082H12.3846C12.0972 25.4082 11.864 25.1752 11.864 24.8876V22.2018H10.7564C10.5263 22.2018 10.34 22.0152 10.34 21.7854V19.8591C10.34 19.629 10.5265 19.4427 10.7564 19.4427H11.864V9.11244C11.864 8.82499 12.0972 8.59184 12.3846 8.59184H18.9563C20.8157 8.59184 22.2901 8.99653 23.3388 9.79465C24.4312 10.6259 24.9849 11.8057 24.9849 13.3008C24.9847 14.7774 24.433 15.9705 23.3448 16.8474ZM26.981 26.9726C26.3292 27.6248 25.6108 28.2156 24.8456 28.7282C24.7513 28.7916 24.6445 28.8218 24.5387 28.8218C24.3608 28.8218 24.1864 28.736 24.0799 28.5772C23.9099 28.3242 23.9777 27.9813 24.2312 27.8116C24.9364 27.3384 25.5989 26.7938 26.2001 26.1921C26.4158 25.9764 26.7653 25.9767 26.9808 26.1919C27.1965 26.4076 27.1965 26.7569 26.981 26.9726ZM30.0401 22.3976C29.6877 23.2481 29.2488 24.068 28.7355 24.8355C28.6291 24.9946 28.4543 25.0805 28.2763 25.0805C28.1708 25.0805 28.0641 25.0503 27.9699 24.9874C27.7164 24.818 27.6484 24.4751 27.8177 24.2217C28.2911 23.5143 28.6956 22.7584 29.0201 21.9748C29.1367 21.6931 29.4601 21.5593 29.7414 21.6761C30.0229 21.7929 30.1567 22.1159 30.0401 22.3976ZM30.3004 20.1958C30.2649 20.1958 30.2289 20.1925 30.1929 20.1852C29.894 20.126 29.6992 19.8359 29.7584 19.5368C29.9222 18.7068 30.0054 17.8535 30.0054 17L30.0052 16.9532C30.0052 16.6483 30.2523 16.4012 30.5572 16.4012C30.8621 16.4012 31.1091 16.6483 31.1091 16.9532L31.1093 16.9925C31.1093 17.9255 31.0193 18.8508 30.8411 19.7507C30.7892 20.0139 30.5585 20.1958 30.3004 20.1958Z" fill="#F8B427"/>
<path d="M11.1738 17.1152L9.82617 16.793L10.3125 12.4688H15.1055V13.834H11.7012L11.4902 15.7266C11.6035 15.6602 11.7754 15.5898 12.0059 15.5156C12.2363 15.4375 12.4941 15.3984 12.7793 15.3984C13.1934 15.3984 13.5605 15.4629 13.8809 15.5918C14.2012 15.7207 14.4727 15.9082 14.6953 16.1543C14.9219 16.4004 15.0938 16.7012 15.2109 17.0566C15.3281 17.4121 15.3867 17.8145 15.3867 18.2637C15.3867 18.6426 15.3281 19.0039 15.2109 19.3477C15.0938 19.6875 14.916 19.9922 14.6777 20.2617C14.4395 20.5273 14.1406 20.7363 13.7812 20.8887C13.4219 21.041 12.9961 21.1172 12.5039 21.1172C12.1367 21.1172 11.7812 21.0625 11.4375 20.9531C11.0977 20.8438 10.791 20.6816 10.5176 20.4668C10.248 20.252 10.0312 19.9922 9.86719 19.6875C9.70703 19.3789 9.62305 19.0273 9.61523 18.6328H11.291C11.3145 18.875 11.377 19.084 11.4785 19.2598C11.584 19.4316 11.7227 19.5645 11.8945 19.6582C12.0664 19.752 12.2676 19.7988 12.498 19.7988C12.7129 19.7988 12.8965 19.7578 13.0488 19.6758C13.2012 19.5938 13.3242 19.4805 13.418 19.3359C13.5117 19.1875 13.5801 19.0156 13.623 18.8203C13.6699 18.6211 13.6934 18.4062 13.6934 18.1758C13.6934 17.9453 13.666 17.7363 13.6113 17.5488C13.5566 17.3613 13.4727 17.1992 13.3594 17.0625C13.2461 16.9258 13.1016 16.8203 12.9258 16.7461C12.7539 16.6719 12.5527 16.6348 12.3223 16.6348C12.0098 16.6348 11.7676 16.6836 11.5957 16.7812C11.4277 16.8789 11.2871 16.9902 11.1738 17.1152ZM20.6895 17.959H16.2012V16.5879H20.6484C21.0117 16.5879 21.3008 16.5312 21.5156 16.418C21.7344 16.3047 21.8926 16.1484 21.9902 15.9492C22.0879 15.7461 22.1367 15.5156 22.1367 15.2578C22.1367 15.0039 22.084 14.7715 21.9785 14.5605C21.877 14.3457 21.7188 14.1738 21.5039 14.0449C21.293 13.9121 21.0234 13.8457 20.6953 13.8457H19.1426V21H17.3848V12.4688H20.6895C21.3613 12.4688 21.9355 12.5879 22.4121 12.8262C22.8926 13.0645 23.2617 13.3926 23.5195 13.8105C23.7773 14.2285 23.9062 14.707 23.9062 15.2461C23.9062 15.8125 23.7734 16.2988 23.5078 16.7051C23.2461 17.1113 22.875 17.4219 22.3945 17.6367C21.918 17.8516 21.3496 17.959 20.6895 17.959ZM21.0117 18.4395V19.8105H16.2012V18.4395H21.0117Z" fill="black"/>
</g>
<defs>
<clipPath id="clip0_18_200">
<rect width="34" height="34" fill="white"/>
</clipPath>
</defs>
</svg>
