<svg width="80" height="80" viewBox="0 0 80 80" fill="none" xmlns="http://www.w3.org/2000/svg">
<rect width="80" height="80" rx="15" fill="#0066FF"/>
<g clip-path="url(#clip0_386_2)">
<path d="M34.4347 14.9078C37.5331 22.5765 33.8148 31.3362 26.146 34.4346C18.4773 37.533 9.71757 33.8147 6.61918 26.146C3.52079 18.4772 7.23908 9.71748 14.9078 6.6191C22.5766 3.52071 31.3363 7.23897 34.4347 14.9078ZM8.09425 25.55C10.864 32.4054 18.6947 35.7293 25.5501 32.9595C32.4055 30.1898 35.7294 22.3591 32.9596 15.5037C30.1899 8.6483 22.3592 5.32438 15.5038 8.09415C8.6484 10.8639 5.32448 18.6946 8.09425 25.55Z" fill="white"/>
<path d="M13.2223 29.2361C15.1251 29.8193 17.2211 29.7521 18.9351 28.7042C20.7116 27.6181 26.9235 21.2461 28.0646 19.5546C29.1882 17.8892 29.1715 15.7422 28.5841 13.8406C28.2159 12.6485 27.1589 11.6674 26.4214 11.1013C25.9961 10.7748 25.3955 10.8101 25.007 11.1796C24.2099 11.9378 22.8856 13.251 22.2463 14.1875C21.2967 15.5787 22.9076 16.7475 22.9076 16.7475C22.9076 16.7475 24.1485 17.66 24.1328 18.3354C24.1101 19.3117 22.7307 21.0201 21.6136 22.2472C20.3889 23.367 18.6835 24.7502 17.7073 24.775C17.0319 24.7922 16.1167 23.5533 16.1167 23.5533C16.1167 23.5533 14.9443 21.945 13.5553 22.8976C12.6201 23.539 11.3099 24.8661 10.5534 25.6649C10.1848 26.0542 10.1508 26.6548 10.4782 27.0794C11.046 27.8157 12.0293 28.8705 13.2223 29.2361Z" fill="white"/>
</g>
<g clip-path="url(#clip1_386_2)">
<path d="M26.3542 76.4046C26.2391 75.9391 26.0827 75.4848 25.9413 75.0354C25.7686 74.5965 25.6013 74.1635 25.4062 73.7611C25.219 73.3535 25.014 72.9733 24.7971 72.6258C24.6006 72.268 24.3616 71.9614 24.1582 71.6734C23.7259 71.1104 23.3139 70.6905 23.006 70.4244C22.6937 70.1595 22.4963 70.0407 22.4963 70.0407C22.4963 70.0407 22.6304 70.235 22.8359 70.5812C22.9371 70.7564 23.0577 70.9677 23.1886 71.2131C23.3252 71.4534 23.4512 71.7451 23.6092 72.0432C23.7443 72.3574 23.905 72.6843 24.049 73.0461C24.2054 73.3994 24.3362 73.7887 24.4874 74.1813C24.6428 74.5725 24.7467 75.0011 24.8968 75.4155C25.0048 75.8471 25.1491 76.2728 25.2507 76.7132C25.3442 77.1391 25.467 77.5567 25.5452 77.9808H26.6666C26.658 77.9221 26.6497 77.8634 26.6409 77.8044C26.5845 77.3359 26.451 76.8733 26.3542 76.4046Z" fill="#0758D1"/>
<path d="M54.1006 75.9584C54.2502 75.5442 54.3542 75.1154 54.5097 74.7244C54.6614 74.332 54.7919 73.9424 54.9481 73.5893C55.0922 73.2275 55.2532 72.9006 55.388 72.586C55.5459 72.2874 55.672 71.9966 55.8088 71.7561C55.9396 71.5105 56.0604 71.2995 56.1613 71.1242C56.3672 70.7778 56.5005 70.5836 56.5005 70.5836C56.5005 70.5836 56.3036 70.7025 55.9912 70.9673C55.6827 71.2336 55.2712 71.6533 54.8388 72.2162C54.6357 72.5044 54.3964 72.8111 54.1997 73.1689C53.9837 73.5164 53.7783 73.8963 53.5911 74.3039C53.3964 74.7065 53.2285 75.1394 53.0561 75.5785C52.9146 76.0278 52.7582 76.482 52.6432 76.9474C52.5706 77.3 52.4768 77.6494 52.4109 78H53.5668C53.6271 77.7532 53.6916 77.506 53.7465 77.2565C53.8487 76.816 53.9925 76.3906 54.1006 75.9584Z" fill="#0758D1"/>
<path d="M25.3428 39.4052C25.3428 39.4052 24.862 51.1086 22.1228 55.2992C22.1228 55.2992 37.0953 64.9181 57.5449 55.0131C57.5449 55.0131 53.7104 48.8229 54.8975 40.6325L25.3428 39.4052Z" fill="#0758D1"/>
<path d="M44.8799 53.5753H34.1641V66.8005H44.8799V53.5753Z" fill="#0066FF"/>
<path d="M34.1477 60.5264L45.195 54.0711L34.145 51.4265L34.1477 60.5264Z" fill="#0066FF"/>
<path d="M25.9314 37.3302C25.9314 47.2652 31.8817 55.3387 39.2823 55.5606V22.6842C32.0094 22.931 25.9314 27.534 25.9314 37.3302Z" fill="#0066FF"/>
<path d="M39.9035 22.6724C39.6958 22.6724 39.489 22.6772 39.2822 22.6841V55.5605C39.3861 55.5632 39.4892 55.5709 39.5938 55.5709C47.1393 55.5709 53.2556 47.4044 53.2556 37.3301C53.2556 27.2559 47.4494 22.6724 39.9035 22.6724Z" fill="#0066FF"/>
<path d="M45.1911 28.2996C45.1911 28.2996 46.6012 35.2882 54.0059 36.7595C54.0059 36.7595 57.1792 18 40.9599 18C24.7404 18 24.0349 29.0351 24.0349 36.7595C24.0349 36.7595 36.0236 37.8629 45.1911 28.2996Z" fill="#0758D1"/>
<path d="M51.8786 38.4751C51.5847 40.5778 52.1492 42.4058 53.1384 42.5575C54.1281 42.71 55.1686 41.1282 55.4618 39.025C55.7557 36.9224 55.1908 35.0946 54.2016 34.9426C53.2124 34.7906 52.1715 36.372 51.8786 38.4751Z" fill="#0066FF"/>
<path d="M26.8571 38.3033C27.0491 40.3788 26.4683 42.1363 25.5604 42.2283C24.6531 42.3207 23.7614 40.7129 23.5697 38.6372C23.3782 36.5613 23.9591 34.8037 24.8667 34.7116C25.7743 34.6198 26.666 36.2275 26.8571 38.3033Z" fill="#0758D1"/>
<path d="M48.9858 69.4934L46.5417 69.6755L48.4618 71.3144L45.4475 77.9807H52.4108C52.4767 77.6301 52.5705 77.2809 52.6431 76.9278C52.7581 76.4625 52.9145 76.0082 53.056 75.5595C53.2284 75.1204 53.3963 74.6873 53.591 74.2846C53.7782 73.877 53.9836 73.497 54.1996 73.1495C54.3963 72.7917 54.6356 72.4854 54.8387 72.1968C55.2711 71.634 55.6826 71.2141 55.9911 70.9481C56.3035 70.6832 56.5004 70.5643 56.5004 70.5643C56.5004 70.5643 56.367 70.7586 56.1612 71.1047C56.0603 71.2802 55.9395 71.491 55.8087 71.7368C55.6719 71.9773 55.5458 72.2683 55.3879 72.567C55.2531 72.8812 55.0921 73.208 54.948 73.5703C54.7918 73.923 54.6613 74.3125 54.5096 74.7051C54.3541 75.0961 54.2501 75.525 54.1005 75.9393C53.9924 76.3708 53.8485 76.7966 53.7464 77.2371C53.6915 77.4866 53.627 77.7339 53.5667 77.9808H61C59.931 73.7294 56.7013 64.4578 48.4817 61.8424L49.3349 62.209L48.9858 69.4934Z" fill="#0758D1"/>
<path d="M25.2506 76.7132C25.149 76.2729 25.0048 75.8471 24.8968 75.4155C24.7466 75.0012 24.6428 74.5725 24.4874 74.1813C24.3362 73.7887 24.2053 73.3994 24.0489 73.0462C23.905 72.6843 23.7443 72.3574 23.6092 72.0432C23.4511 71.7451 23.3251 71.4533 23.1885 71.2131C23.0577 70.9677 22.937 70.7564 22.8359 70.5812C22.6304 70.235 22.4963 70.0407 22.4963 70.0407C22.4963 70.0407 22.6936 70.1595 23.0059 70.4244C23.3138 70.6905 23.7258 71.1104 24.1582 71.6735C24.3615 71.9614 24.6005 72.268 24.7971 72.6258C25.0139 72.9733 25.2189 73.3535 25.4061 73.7611C25.6012 74.1635 25.7686 74.5965 25.9412 75.0354C26.0826 75.4848 26.239 75.9391 26.3542 76.4046C26.4509 76.8733 26.5845 77.3359 26.6409 77.8044C26.6497 77.8634 26.658 77.9221 26.6665 77.9808H33.6918L29.9574 71.3145L32.0527 69.4934L29.2595 69.3114L29.6085 62.9376L31.3685 61.9587C28.2236 62.849 19.9449 66.2784 18 77.9808H25.5452C25.4669 77.5567 25.3441 77.1391 25.2506 76.7132Z" fill="#0758D1"/>
<path d="M37.4955 62.4476L32.7975 61.7104L32.7307 61.7791L32.4299 62.0859L36.8222 75.5668L37.6089 77.9808H39.523V62.8294L37.4955 62.4476Z" fill="#0758D1"/>
<path d="M46.1725 61.013L41.7891 63.2565L39.5229 62.8294V77.9807H42.0059L42.6187 75.5667L45.9568 62.421L46.2931 61.2016L46.1725 61.013Z" fill="#0758D1"/>
<path d="M49.3348 62.209L48.4817 61.8424L46.3669 60.9343L46.2932 61.2016L45.9569 62.421L42.6171 74.5239L41.6631 77.9808H42.7655H45.4474L48.4617 71.3144L46.5417 69.6755L48.9857 69.4934L49.3348 62.209Z" fill="#0758D1"/>
<path d="M36.8198 75.1796L32.4301 62.0859L32.3099 61.7269L32.2272 61.4805L31.3685 61.9586L29.6086 62.9376L29.2595 69.3113L32.0527 69.4934L29.9574 71.3144L33.6918 77.9808H36.6776H37.7586L36.8198 75.1796Z" fill="#0758D1"/>
<path d="M34.1474 59.8417L39.5589 62.9376L34.8771 69.4236L32.2271 61.4805L34.1474 59.8417Z" fill="#0758D1"/>
<path d="M44.9707 59.6597L46.3671 60.9344L44.2338 68.6887L39.5591 62.9376L44.9707 59.6597Z" fill="#0758D1"/>
<path d="M24.7302 34.3861C24.7302 34.3861 27.0834 22.0184 38.3959 22.0184C49.7083 22.0184 52.6953 32.7812 52.6953 32.7812L50.9758 32.9699C50.9758 32.9699 48.1701 24.8506 38.7126 24.8506C29.2554 24.8506 25.9067 34.3861 25.9067 34.3861H24.7302Z" fill="#0758D1"/>
<path d="M51.428 33.7253C51.428 33.7253 52.5141 43.3552 52.2423 44.016C52.2423 44.016 55.8626 44.5824 55.9532 41.5613V36.3689C55.9532 36.3689 55.8073 34.5464 53.6907 33.7253H51.7898" fill="#0758D1"/>
<path d="M41.433 49.535C41.433 49.535 49.4371 48.881 52.6953 44.9005C52.6953 44.9005 53.5059 44.3011 54.0815 45.5001C54.6565 46.6999 46.0845 50.7344 41.433 50.9525C41.433 50.9525 41.2241 51.825 38.9248 51.8795C36.625 51.9341 36.1025 51.1165 36.1025 51.1165C36.1025 51.1165 35.0049 49.8076 36.3115 48.8809C37.6178 47.9541 38.7127 48.3164 38.7127 48.3164C38.7127 48.3164 40.963 48.4446 41.433 49.535Z" fill="#0758D1"/>
</g>
<defs>
<clipPath id="clip0_386_2">
<rect width="30" height="30" fill="white" transform="translate(12.2383 40.0537) rotate(-112)"/>
</clipPath>
<clipPath id="clip1_386_2">
<rect x="18" y="13" width="43" height="60" rx="5" fill="white"/>
</clipPath>
</defs>
</svg>
