<svg width="40" height="40" viewBox="0 0 40 40" fill="none" xmlns="http://www.w3.org/2000/svg">
<g clip-path="url(#clip0_21_1997)">
<path d="M39.9998 19.9999C39.9998 8.95424 31.0456 0 19.9999 0C8.95423 0 0 8.95424 0 19.9999C0 26.3655 2.9741 32.0359 7.60836 35.6988C8.42425 29.5829 13.6608 24.8648 20.0001 24.8648C26.3392 24.8648 31.5759 29.5829 32.3918 35.6988C37.0256 32.0359 39.9998 26.3655 39.9998 19.9999Z" fill="white"/>
<path d="M19.9996 24.8647C13.6605 24.8647 8.4238 29.5828 7.60791 35.6988C11.0151 38.3918 15.3194 39.9999 19.9996 39.9999C24.6798 39.9999 28.9842 38.392 32.3913 35.6989C31.5755 29.5826 26.3389 24.8647 19.9996 24.8647Z" fill="black"/>
<path d="M19.9998 23.1349C24.836 23.1349 28.7565 19.2144 28.7565 14.3783C28.7565 9.54208 24.836 5.62158 19.9998 5.62158C15.1637 5.62158 11.2432 9.54208 11.2432 14.3783C11.2432 19.2144 15.1637 23.1349 19.9998 23.1349Z" fill="black"/>
</g>
<defs>
<clipPath id="clip0_21_1997">
<rect width="39.9998" height="40" fill="white"/>
</clipPath>
</defs>
</svg>
