<svg width="30" height="30" viewBox="0 0 30 30" fill="none" xmlns="http://www.w3.org/2000/svg">
<g clip-path="url(#clip0_7_1119)">
<path d="M29.9999 14.9999C29.9999 6.71568 23.2842 0 14.9999 0C6.71567 0 0 6.71568 0 14.9999C0 19.7741 2.23058 24.0269 5.70627 26.7741C6.31819 22.1871 10.2456 18.6486 15 18.6486C19.7544 18.6486 23.6819 22.1871 24.2938 26.7741C27.7692 24.0269 29.9999 19.7741 29.9999 14.9999Z" fill="white"/>
<path d="M14.9999 18.6486C10.2455 18.6486 6.31797 22.1871 5.70605 26.7741C8.26143 28.7939 11.4896 30 14.9999 30C18.5099 30 21.7383 28.794 24.2936 26.7742C23.6817 22.187 19.7543 18.6486 14.9999 18.6486Z" fill="#CECECE"/>
<path d="M14.9999 17.3512C18.627 17.3512 21.5674 14.4109 21.5674 10.7837C21.5674 7.15659 18.627 4.21622 14.9999 4.21622C11.3728 4.21622 8.43237 7.15659 8.43237 10.7837C8.43237 14.4109 11.3728 17.3512 14.9999 17.3512Z" fill="#CECECE"/>
</g>
<defs>
<clipPath id="clip0_7_1119">
<rect width="29.9999" height="30" fill="white"/>
</clipPath>
</defs>
</svg>
