<svg width="20" height="20" viewBox="0 0 20 20" fill="none" xmlns="http://www.w3.org/2000/svg">
<g clip-path="url(#clip0_21_2009)">
<path d="M15.7888 20H4.21127C1.88916 20 0 18.1107 0 15.7887V4.21109C0 1.88908 1.88916 0 4.21127 0H15.7888C18.1108 0 20 1.88906 20 4.21109V15.7887C20 18.1107 18.1108 20 15.7888 20ZM4.21127 2.03836C3.01314 2.03836 2.03836 3.01294 2.03836 4.21107V15.7887C2.03836 16.9868 3.01314 17.9616 4.21127 17.9616H15.7888C16.987 17.9616 17.9616 16.9868 17.9616 15.7887V4.21109C17.9616 3.01295 16.987 2.03837 15.7888 2.03837H4.21127V2.03836Z" fill="#0066FF"/>
<path d="M15.8508 4.57178L7.42515 12.9976L4.08947 9.66179L1.77222 11.9789L7.42515 17.6318L18.1679 6.88903L15.8508 4.57178Z" fill="#1EB80F"/>
</g>
<defs>
<clipPath id="clip0_21_2009">
<rect width="20" height="20" fill="white"/>
</clipPath>
</defs>
</svg>
